<?xml version="1.0" encoding="UTF-8" standalone="no"?>
<!DOCTYPE svg PUBLIC "-//W3C//DTD SVG 1.1//EN"
 "http://www.w3.org/Graphics/SVG/1.1/DTD/svg11.dtd">
<!-- Generated by graphviz version 10.0.1 (20240210.2158)
 -->
<!-- Title: dependency&#45;cruiser output Pages: 1 -->
<svg width="364pt" height="246pt"
 viewBox="0.00 0.00 363.50 246.00" xmlns="http://www.w3.org/2000/svg" xmlns:xlink="http://www.w3.org/1999/xlink">
<g id="graph0" class="graph" transform="scale(1 1) rotate(0) translate(4 242)">
<title>dependency&#45;cruiser output</title>
<polygon fill="white" stroke="none" points="-4,4 -4,-242 359.5,-242 359.5,4 -4,4"/>
<g id="clust1" class="cluster">
<title>cluster_app</title>
<path fill="#ffffff" stroke="black" stroke-width="2" d="M20,-8C20,-8 335.5,-8 335.5,-8 341.5,-8 347.5,-14 347.5,-20 347.5,-20 347.5,-218 347.5,-218 347.5,-224 341.5,-230 335.5,-230 335.5,-230 20,-230 20,-230 14,-230 8,-224 8,-218 8,-218 8,-20 8,-20 8,-14 14,-8 20,-8"/>
<text text-anchor="middle" x="177.75" y="-217.45" font-family="Helvetica,sans-Serif" font-weight="bold" font-size="9.00">app</text>
</g>
<g id="clust2" class="cluster">
<title>cluster_app/api</title>
<path fill="#ffffff" stroke="black" stroke-width="2" d="M182.12,-138C182.12,-138 228.12,-138 228.12,-138 234.12,-138 240.12,-144 240.12,-150 240.12,-150 240.12,-181 240.12,-181 240.12,-187 234.12,-193 228.12,-193 228.12,-193 182.12,-193 182.12,-193 176.12,-193 170.12,-187 170.12,-181 170.12,-181 170.12,-150 170.12,-150 170.12,-144 176.12,-138 182.12,-138"/>
<text text-anchor="middle" x="205.12" y="-180.45" font-family="Helvetica,sans-Serif" font-weight="bold" font-size="9.00">api</text>
</g>
<g id="clust3" class="cluster">
<title>cluster_app/components</title>
<path fill="#ffffff" stroke="black" stroke-width="2" d="M90,-44C90,-44 238.75,-44 238.75,-44 244.75,-44 250.75,-50 250.75,-56 250.75,-56 250.75,-118 250.75,-118 250.75,-124 244.75,-130 238.75,-130 238.75,-130 90,-130 90,-130 84,-130 78,-124 78,-118 78,-118 78,-56 78,-56 78,-50 84,-44 90,-44"/>
<text text-anchor="middle" x="164.38" y="-117.45" font-family="Helvetica,sans-Serif" font-weight="bold" font-size="9.00">components</text>
</g>
<g id="clust4" class="cluster">
<title>cluster_app/types</title>
<path fill="#ffffff" stroke="black" stroke-width="2" d="M270.75,-143C270.75,-143 327.5,-143 327.5,-143 333.5,-143 339.5,-149 339.5,-155 339.5,-155 339.5,-186 339.5,-186 339.5,-192 333.5,-198 327.5,-198 327.5,-198 270.75,-198 270.75,-198 264.75,-198 258.75,-192 258.75,-186 258.75,-186 258.75,-155 258.75,-155 258.75,-149 264.75,-143 270.75,-143"/>
<text text-anchor="middle" x="299.12" y="-185.45" font-family="Helvetica,sans-Serif" font-weight="bold" font-size="9.00">types</text>
</g>
<!-- app/api/api.tsx -->
<g id="node1" class="node">
<title>app/api/api.tsx</title>
<g id="a_node1"><a xlink:href="app/api/api.tsx" xlink:title="api.tsx">
<path fill="#bbfeff" stroke="black" d="M225.71,-165.62C225.71,-165.62 184.54,-165.62 184.54,-165.62 181.33,-165.62 178.12,-162.42 178.12,-159.21 178.12,-159.21 178.12,-152.79 178.12,-152.79 178.12,-149.58 181.33,-146.38 184.54,-146.38 184.54,-146.38 225.71,-146.38 225.71,-146.38 228.92,-146.38 232.12,-149.58 232.12,-152.79 232.12,-152.79 232.12,-159.21 232.12,-159.21 232.12,-162.42 228.92,-165.62 225.71,-165.62"/>
<text text-anchor="start" x="192" y="-153.07" font-family="Helvetica,sans-Serif" font-size="9.00">api.tsx</text>
</a>
</g>
</g>
<!-- app/types/pokemon.ts -->
<g id="node2" class="node">
<title>app/types/pokemon.ts</title>
<g id="a_node2"><a xlink:href="app/types/pokemon.ts" xlink:title="pokemon.ts">
<path fill="#ddfeff" stroke="black" d="M325.08,-170.62C325.08,-170.62 273.17,-170.62 273.17,-170.62 269.96,-170.62 266.75,-167.42 266.75,-164.21 266.75,-164.21 266.75,-157.79 266.75,-157.79 266.75,-154.58 269.96,-151.38 273.17,-151.38 273.17,-151.38 325.08,-151.38 325.08,-151.38 328.29,-151.38 331.5,-154.58 331.5,-157.79 331.5,-157.79 331.5,-164.21 331.5,-164.21 331.5,-167.42 328.29,-170.62 325.08,-170.62"/>
<text text-anchor="start" x="274.75" y="-158.07" font-family="Helvetica,sans-Serif" font-size="9.00">pokemon.ts</text>
</a>
</g>
</g>
<!-- app/api/api.tsx&#45;&gt;app/types/pokemon.ts -->
<g id="edge1" class="edge">
<title>app/api/api.tsx&#45;&gt;app/types/pokemon.ts</title>
<path fill="none" stroke="#000000" stroke-width="2" stroke-opacity="0.200000" d="M232.24,-157.42C240.13,-157.85 248.98,-158.33 257.57,-158.8"/>
<polygon fill="#000000" fill-opacity="0.200000" stroke="#000000" stroke-width="2" stroke-opacity="0.200000" points="257.26,-160.88 263.36,-159.11 257.48,-156.69 257.26,-160.88"/>
</g>
<!-- app/components/error.tsx -->
<g id="node3" class="node">
<title>app/components/error.tsx</title>
<g id="a_node3"><a xlink:href="app/components/error.tsx" xlink:title="error.tsx">
<path fill="#bbfeff" stroke="black" d="M225.71,-71.62C225.71,-71.62 184.54,-71.62 184.54,-71.62 181.33,-71.62 178.12,-68.42 178.12,-65.21 178.12,-65.21 178.12,-58.79 178.12,-58.79 178.12,-55.58 181.33,-52.38 184.54,-52.38 184.54,-52.38 225.71,-52.38 225.71,-52.38 228.92,-52.38 232.12,-55.58 232.12,-58.79 232.12,-58.79 232.12,-65.21 232.12,-65.21 232.12,-68.42 228.92,-71.62 225.71,-71.62"/>
<text text-anchor="start" x="188.62" y="-59.08" font-family="Helvetica,sans-Serif" font-size="9.00">error.tsx</text>
</a>
</g>
</g>
<!-- app/components/pokemon.tsx -->
<g id="node4" class="node">
<title>app/components/pokemon.tsx</title>
<g id="a_node4"><a xlink:href="app/components/pokemon.tsx" xlink:title="pokemon.tsx">
<path fill="#bbfeff" stroke="black" d="M148.08,-102.62C148.08,-102.62 92.42,-102.62 92.42,-102.62 89.21,-102.62 86,-99.42 86,-96.21 86,-96.21 86,-89.79 86,-89.79 86,-86.58 89.21,-83.38 92.42,-83.38 92.42,-83.38 148.08,-83.38 148.08,-83.38 151.29,-83.38 154.5,-86.58 154.5,-89.79 154.5,-89.79 154.5,-96.21 154.5,-96.21 154.5,-99.42 151.29,-102.62 148.08,-102.62"/>
<text text-anchor="start" x="94" y="-90.08" font-family="Helvetica,sans-Serif" font-size="9.00">pokemon.tsx</text>
</a>
</g>
</g>
<!-- app/components/pokemon.tsx&#45;&gt;app/api/api.tsx -->
<g id="edge2" class="edge">
<title>app/components/pokemon.tsx&#45;&gt;app/api/api.tsx</title>
<path fill="none" stroke="#000000" stroke-width="2" stroke-opacity="0.200000" d="M131.89,-103.02C141.02,-111.42 154.7,-123.53 167.5,-133 171.25,-135.78 175.34,-138.56 179.38,-141.18"/>
<polygon fill="#000000" fill-opacity="0.200000" stroke="#000000" stroke-width="2" stroke-opacity="0.200000" points="178.24,-142.95 184.43,-144.37 180.48,-139.39 178.24,-142.95"/>
</g>
<!-- app/components/pokemon.tsx&#45;&gt;app/types/pokemon.ts -->
<g id="edge3" class="edge">
<title>app/components/pokemon.tsx&#45;&gt;app/types/pokemon.ts</title>
<path fill="none" stroke="#000000" stroke-width="2" stroke-opacity="0.200000" d="M122.24,-102.89C124.97,-124.32 134.75,-174.81 167.5,-196 198.56,-216.1 215.61,-207.57 250.75,-196 262.44,-192.15 273.6,-184.19 282.15,-176.83"/>
<polygon fill="#000000" fill-opacity="0.200000" stroke="#000000" stroke-width="2" stroke-opacity="0.200000" points="283.42,-178.52 286.44,-172.93 280.59,-175.42 283.42,-178.52"/>
</g>
<!-- app/components/pokemon.tsx&#45;&gt;app/components/error.tsx -->
<g id="edge4" class="edge">
<title>app/components/pokemon.tsx&#45;&gt;app/components/error.tsx</title>
<path fill="none" stroke="#000000" stroke-width="2" stroke-opacity="0.200000" d="M147.93,-83.02C154.8,-80.45 162.29,-77.65 169.5,-74.95"/>
<polygon fill="#000000" fill-opacity="0.200000" stroke="#000000" stroke-width="2" stroke-opacity="0.200000" points="170.06,-76.98 174.94,-72.92 168.59,-73.05 170.06,-76.98"/>
</g>
<!-- app/components/profileCard.tsx -->
<g id="node5" class="node">
<title>app/components/profileCard.tsx</title>
<g id="a_node5"><a xlink:href="app/components/profileCard.tsx" xlink:title="profileCard.tsx">
<path fill="#bbfeff" stroke="black" d="M236.33,-102.62C236.33,-102.62 173.92,-102.62 173.92,-102.62 170.71,-102.62 167.5,-99.42 167.5,-96.21 167.5,-96.21 167.5,-89.79 167.5,-89.79 167.5,-86.58 170.71,-83.38 173.92,-83.38 173.92,-83.38 236.33,-83.38 236.33,-83.38 239.54,-83.38 242.75,-86.58 242.75,-89.79 242.75,-89.79 242.75,-96.21 242.75,-96.21 242.75,-99.42 239.54,-102.62 236.33,-102.62"/>
<text text-anchor="start" x="175.5" y="-90.08" font-family="Helvetica,sans-Serif" font-size="9.00">profileCard.tsx</text>
</a>
</g>
</g>
<!-- app/components/pokemon.tsx&#45;&gt;app/components/profileCard.tsx -->
<g id="edge5" class="edge">
<title>app/components/pokemon.tsx&#45;&gt;app/components/profileCard.tsx</title>
<path fill="none" stroke="#000000" stroke-width="2" stroke-opacity="0.200000" d="M154.96,-93C156.09,-93 157.24,-93 158.38,-93"/>
<polygon fill="#000000" fill-opacity="0.200000" stroke="#000000" stroke-width="2" stroke-opacity="0.200000" points="158.17,-95.1 164.17,-93 158.17,-90.9 158.17,-95.1"/>
</g>
<!-- app/globals.css -->
<g id="node6" class="node">
<title>app/globals.css</title>
<g id="a_node6"><a xlink:href="app/globals.css" xlink:title="globals.css">
<path fill="#ffffcc" stroke="black" d="M145.83,-35.62C145.83,-35.62 94.67,-35.62 94.67,-35.62 91.46,-35.62 88.25,-32.42 88.25,-29.21 88.25,-29.21 88.25,-22.79 88.25,-22.79 88.25,-19.58 91.46,-16.38 94.67,-16.38 94.67,-16.38 145.83,-16.38 145.83,-16.38 149.04,-16.38 152.25,-19.58 152.25,-22.79 152.25,-22.79 152.25,-29.21 152.25,-29.21 152.25,-32.42 149.04,-35.62 145.83,-35.62"/>
<text text-anchor="start" x="96.25" y="-23.07" font-family="Helvetica,sans-Serif" font-size="9.00">globals.css</text>
</a>
</g>
</g>
<!-- app/layout.tsx -->
<g id="node7" class="node">
<title>app/layout.tsx</title>
<g id="a_node7"><a xlink:href="app/layout.tsx" xlink:title="layout.tsx">
<path fill="#bbfeff" stroke="black" d="M63.58,-35.62C63.58,-35.62 22.42,-35.62 22.42,-35.62 19.21,-35.62 16,-32.42 16,-29.21 16,-29.21 16,-22.79 16,-22.79 16,-19.58 19.21,-16.38 22.42,-16.38 22.42,-16.38 63.58,-16.38 63.58,-16.38 66.79,-16.38 70,-19.58 70,-22.79 70,-22.79 70,-29.21 70,-29.21 70,-32.42 66.79,-35.62 63.58,-35.62"/>
<text text-anchor="start" x="24.25" y="-23.07" font-family="Helvetica,sans-Serif" font-size="9.00">layout.tsx</text>
</a>
</g>
</g>
<!-- app/layout.tsx&#45;&gt;app/globals.css -->
<g id="edge6" class="edge">
<title>app/layout.tsx&#45;&gt;app/globals.css</title>
<path fill="none" stroke="#000000" stroke-width="2" stroke-opacity="0.200000" d="M70.32,-26C73.16,-26 76.09,-26 79.05,-26"/>
<polygon fill="#000000" fill-opacity="0.200000" stroke="#000000" stroke-width="2" stroke-opacity="0.200000" points="78.88,-28.1 84.88,-26 78.88,-23.9 78.88,-28.1"/>
</g>
<!-- app/page.tsx -->
<g id="node8" class="node">
<title>app/page.tsx</title>
<g id="a_node8"><a xlink:href="app/page.tsx" xlink:title="page.tsx">
<path fill="#bbfeff" stroke="black" d="M63.58,-102.62C63.58,-102.62 22.42,-102.62 22.42,-102.62 19.21,-102.62 16,-99.42 16,-96.21 16,-96.21 16,-89.79 16,-89.79 16,-86.58 19.21,-83.38 22.42,-83.38 22.42,-83.38 63.58,-83.38 63.58,-83.38 66.79,-83.38 70,-86.58 70,-89.79 70,-89.79 70,-96.21 70,-96.21 70,-99.42 66.79,-102.62 63.58,-102.62"/>
<text text-anchor="start" x="25.75" y="-90.08" font-family="Helvetica,sans-Serif" font-size="9.00">page.tsx</text>
</a>
</g>
</g>
<!-- app/page.tsx&#45;&gt;app/components/pokemon.tsx -->
<g id="edge7" class="edge">
<title>app/page.tsx&#45;&gt;app/components/pokemon.tsx</title>
<path fill="none" stroke="#000000" stroke-width="2" stroke-opacity="0.200000" d="M70.32,-93C72.47,-93 74.67,-93 76.9,-93"/>
<polygon fill="#000000" fill-opacity="0.200000" stroke="#000000" stroke-width="2" stroke-opacity="0.200000" points="76.51,-95.1 82.51,-93 76.51,-90.9 76.51,-95.1"/>
</g>
</g>
</svg>
